<svg preserveAspectRatio="none" width="100%" height="100%" overflow="visible" style="display: block;" viewBox="0 0 40 40" fill="none" xmlns="http://www.w3.org/2000/svg">
<g id="Frame 2087329023" opacity="0.6">
<g id="Union" filter="url(#filter0_i_0_66)">
<path d="M30.9078 21.3742C31.0787 20.5639 31.8748 20.0455 32.6852 20.216C33.4955 20.387 34.0141 21.1829 33.8434 21.9934C32.5938 27.9235 27.632 32.4821 21.5006 33.1281V35.7424C21.5004 36.5707 20.8289 37.2424 20.0006 37.2424C19.1724 37.2422 18.5007 36.5706 18.5006 35.7424V33.1281C12.3694 32.4818 7.40722 27.9234 6.15781 21.9934C5.9871 21.183 6.50582 20.3871 7.31601 20.216C8.12653 20.0453 8.92243 20.5638 9.09335 21.3742C10.1567 26.4216 14.6382 30.21 20.0006 30.2102C25.3631 30.2101 29.8444 26.4216 30.9078 21.3742ZM20.4352 4.25314C20.7029 4.26673 20.9677 4.29279 21.2281 4.33127C21.8395 4.42161 22.2505 4.97593 22.2506 5.59396C22.2506 6.5937 21.1843 7.27883 20.1852 7.24533C20.124 7.24328 20.0622 7.2424 20.0006 7.2424C16.9977 7.24262 14.5631 9.67698 14.5631 12.6799V18.3049C14.5632 21.3077 16.9978 23.7422 20.0006 23.7424C23.0035 23.7424 25.4379 21.3078 25.4381 18.3049V18.1174C25.4381 17.2891 26.1098 16.6176 26.9381 16.6174C27.7665 16.6174 28.4381 17.289 28.4381 18.1174V18.3049L28.4273 18.7395C28.201 23.1973 24.5146 26.7424 20.0006 26.7424L19.566 26.7317C15.2522 26.5126 11.7928 23.0533 11.5738 18.7395L11.5631 18.3049V12.6799C11.5631 8.02013 15.3409 4.24262 20.0006 4.2424L20.4352 4.25314ZM26.7359 4.10861C26.8655 3.5299 27.6752 3.57057 27.7809 4.12521L27.899 4.69162C28.1878 5.94248 28.563 6.70826 29.1119 7.24045C29.7449 7.85404 30.6802 8.22686 32.234 8.56467H32.233C32.8154 8.69054 32.7804 9.51503 32.2086 9.61154L32.2066 9.61252C30.6552 9.86695 29.7044 10.3033 29.0709 10.9641C28.4327 11.6299 28.0494 12.5919 27.7818 14.0451V14.0461C27.6805 14.5896 26.9542 14.6218 26.7652 14.1584L26.735 14.0588C26.4015 12.4764 25.9912 11.5291 25.36 10.8996C24.7315 10.2731 23.8149 9.89304 22.3004 9.61349L22.3014 9.61252C21.7119 9.50427 21.7291 8.68197 22.2906 8.56662H22.2926C24.0946 8.20481 25.0343 7.67409 25.6041 7.00217C26.187 6.31441 26.4485 5.40795 26.735 4.10959L26.7359 4.10861Z" fill="var(--fill-0, white)"/>
</g>
</g>
<defs>
<filter id="filter0_i_0_66" x="6.12531" y="3.69163" width="27.7506" height="34.3008" filterUnits="userSpaceOnUse" color-interpolation-filters="sRGB">
<feFlood flood-opacity="0" result="BackgroundImageFix"/>
<feBlend mode="normal" in="SourceGraphic" in2="BackgroundImageFix" result="shape"/>
<feColorMatrix in="SourceAlpha" type="matrix" values="0 0 0 0 0 0 0 0 0 0 0 0 0 0 0 0 0 0 127 0" result="hardAlpha"/>
<feOffset dy="0.75"/>
<feGaussianBlur stdDeviation="0.75"/>
<feComposite in2="hardAlpha" operator="arithmetic" k2="-1" k3="1"/>
<feColorMatrix type="matrix" values="0 0 0 0 1 0 0 0 0 1 0 0 0 0 1 0 0 0 0.5 0"/>
<feBlend mode="normal" in2="shape" result="effect1_innerShadow_0_66"/>
</filter>
</defs>
</svg>
